<svg xmlns="http://www.w3.org/2000/svg" width="162.187" height="34.938" viewBox="0 0 162.187 34.938">
  <metadata><?xpacket begin="﻿" id="W5M0MpCehiHzreSzNTczkc9d"?>
<x:xmpmeta xmlns:x="adobe:ns:meta/" x:xmptk="Adobe XMP Core 5.6-c138 79.159824, 2016/09/14-01:09:01        ">
   <rdf:RDF xmlns:rdf="http://www.w3.org/1999/02/22-rdf-syntax-ns#">
      <rdf:Description rdf:about=""/>
   </rdf:RDF>
</x:xmpmeta>
                                                                                                    
                                                                                                    
                                                                                                    
                                                                                                    
                                                                                                    
                                                                                                    
                                                                                                    
                                                                                                    
                                                                                                    
                                                                                                    
                                                                                                    
                                                                                                    
                                                                                                    
                                                                                                    
                                                                                                    
                                                                                                    
                                                                                                    
                                                                                                    
                                                                                                    
                                                                                                    
                           
<?xpacket end="w"?></metadata>
<defs>
    <style>
      .cls-1 {
        fill-rule: evenodd;
      }
    </style>
  </defs>
  <path id="logo" class="cls-1" d="M199.441,24.416v33.6h13.44a15.561,15.561,0,0,0,11.64-4.824,16.523,16.523,0,0,0,4.68-11.976,16.524,16.524,0,0,0-4.68-11.976,15.561,15.561,0,0,0-11.64-4.824h-13.44Zm7.68,26.208V31.808h5.76a8.559,8.559,0,0,1,6.456,2.568,9.448,9.448,0,0,1,2.472,6.84,9.446,9.446,0,0,1-2.472,6.84,8.557,8.557,0,0,1-6.456,2.568h-5.76Zm34.56-5.952h12v-7.3h-12V31.808h13.2V24.416H234v33.6h21.12V50.624h-13.44V44.672Zm36.1,13.344,10.944-33.6h-8.4l-7.44,24.72-7.44-24.72h-8.4l10.944,33.6h9.792Zm14.3,0h7.68v-33.6h-7.68v33.6ZM330.432,56.6a15.449,15.449,0,0,0,6-5.688l-6.624-3.84a7.456,7.456,0,0,1-3.144,3.024,9.749,9.749,0,0,1-4.632,1.1,9.493,9.493,0,0,1-7.128-2.736,9.945,9.945,0,0,1-2.664-7.248,9.946,9.946,0,0,1,2.664-7.248,9.493,9.493,0,0,1,7.128-2.736,9.787,9.787,0,0,1,4.608,1.08,7.578,7.578,0,0,1,3.168,3.048l6.624-3.84a15.8,15.8,0,0,0-6.048-5.688,17.21,17.21,0,0,0-8.352-2.088A17.061,17.061,0,0,0,304.56,41.216a17.061,17.061,0,0,0,17.472,17.472A17.3,17.3,0,0,0,330.432,56.6Zm17.76-11.928h12v-7.3h-12V31.808h13.2V24.416h-20.88v33.6h21.12V50.624h-13.44V44.672Z" transform="translate(-199.438 -23.75)"/>
</svg>
